<?xml version="1.0" encoding="UTF-8"?>
<!DOCTYPE svg PUBLIC "-//W3C//DTD SVG 1.1//EN" "http://www.w3.org/Graphics/SVG/1.1/DTD/svg11.dtd">
<svg width="44" height="56" xmlns="http://www.w3.org/2000/svg" fill="#fff">
   <path d="m20.738986,0.390401c0,0 1.017867,-0.005883 1.219879,0c12.519739,0.310631 21.957819,10.20494 21.957819,22.356032c0,12.038135 -9.600081,21.872436 -21.957819,22.356032c-0.316803,0.011766 -1.219879,0 -1.219879,0c0,0 0,-7.225705 0,-17.649499c0,-0.782461 6.099394,-3.921719 6.099394,-4.706533c0,-0.703627 -5.940322,-3.942898 -6.096223,-4.678294c-0.002074,-0.009413 -0.003172,1.157807 -0.003172,1.148394c0,-10.34143 0,-18.826133 0,-18.826133z"/>
   <path d="m1.220924,10.980101l17.078304,-10.5897l0,43.535432c0.038182,1.606104 -0.126867,1.470792 -1.219879,2.353267l-15.858425,9.413066c-0.673739,0 -1.219879,-0.527132 -1.219879,-1.176633l0,-41.182165c-0.038182,-1.569629 0.088685,-1.581395 1.219879,-2.353267z"/>
</svg>
