<svg xmlns:dc="http://purl.org/dc/elements/1.1/" xmlns:cc="http://creativecommons.org/ns#" xmlns:rdf="http://www.w3.org/1999/02/22-rdf-syntax-ns#" xmlns:svg="http://www.w3.org/2000/svg" xmlns="http://www.w3.org/2000/svg" xmlns:sodipodi="http://sodipodi.sourceforge.net/DTD/sodipodi-0.dtd" xmlns:inkscape="http://www.inkscape.org/namespaces/inkscape" version="1.1" enable-background="new 0 0 196.6 72" xml:space="preserve" inkscape:version="0.91 r13725" sodipodi:docname="nextcloud-logo-white-transparent.svg" width="114" height="52" inkscape:export-filename="nextcloud-logo-white-transparent.png" inkscape:export-xdpi="300.09631" inkscape:export-ydpi="300.09631" style=""><rect id="backgroundrect" width="100%" height="100%" x="0" y="0" fill="none" stroke="none" class="" style=""/><metadata id="metadata20"><rdf:RDF><cc:Work rdf:about=""><dc:format>image/svg+xml</dc:format><dc:type rdf:resource="http://purl.org/dc/dcmitype/StillImage"/><dc:title/></cc:Work></rdf:RDF></metadata><defs id="defs18"/><sodipodi:namedview pagecolor="#ffffff" bordercolor="#666666" borderopacity="1" objecttolerance="10" gridtolerance="10" guidetolerance="10" inkscape:pageopacity="0" inkscape:pageshadow="2" inkscape:window-width="2560" inkscape:window-height="1359" id="namedview16" showgrid="false" inkscape:zoom="4" inkscape:cx="43.021274" inkscape:cy="53.386932" inkscape:current-layer="Layer_1" fit-margin-top="10" fit-margin-left="10" fit-margin-right="10" fit-margin-bottom="10" inkscape:window-x="0" inkscape:window-y="240" inkscape:window-maximized="1" units="px" inkscape:snap-bbox="true" inkscape:bbox-paths="true" inkscape:bbox-nodes="true" inkscape:snap-bbox-edge-midpoints="true" inkscape:snap-bbox-midpoints="true" inkscape:snap-page="true"/><g class="currentLayer" style=""><title>Layer 1</title><path style="color:#000000;font-style:normal;font-variant:normal;font-weight:normal;font-stretch:normal;font-size:medium;line-height:normal;font-family:sans-serif;text-indent:0;text-align:start;text-decoration:none;text-decoration-line:none;text-decoration-style:solid;text-decoration-color:#000000;letter-spacing:normal;word-spacing:normal;text-transform:none;direction:ltr;block-progression:tb;writing-mode:lr-tb;baseline-shift:baseline;text-anchor:start;white-space:normal;clip-rule:nonzero;display:inline;overflow:visible;visibility:visible;opacity:1;isolation:auto;mix-blend-mode:normal;color-interpolation:sRGB;color-interpolation-filters:linearRGB;solid-color:#000000;solid-opacity:1;fill:#0082c9;fill-opacity:1;fill-rule:nonzero;stroke:none;stroke-width:5.56589985;stroke-linecap:butt;stroke-linejoin:miter;stroke-miterlimit:10;stroke-dasharray:none;stroke-dashoffset:0;stroke-opacity:1;color-rendering:auto;image-rendering:auto;shape-rendering:auto;text-rendering:auto;enable-background:accumulate" d="m57.03280290734864,0.0000025249267583404844 c-11.805250000000001,0 -21.81118,8.0031799 -24.91235,18.8465899 c-2.69524,-5.75151 -8.53592,-9.78093 -15.26337,-9.78093 c-9.25183,0 -16.85708,7.60525 -16.85708,16.85708 c0,9.25182 7.60525,16.86054 16.85708,16.86054 c6.72745,0 12.56813,-4.03188 15.26337,-9.78439 c3.10117,10.84422 13.1071,18.85006 24.91235,18.85006 c11.71795,0 21.67286,-7.8851 24.85334,-18.60701 c2.74505,5.62192 8.513439,9.54134 15.145329,9.54134 c9.25183,0 16.86055,-7.60872 16.86055,-16.86054 c0,-9.25183 -7.60872,-16.85708 -16.86055,-16.85708 c-6.63189,0 -12.400279,3.91696 -15.145329,9.53788 C78.70566290734864,7.882462424926757 68.75075290734863,0.0000025249267583404844 57.03280290734864,0.0000025249267583404844 zm0,9.8954999 c8.91163,0 16.03073,7.11564 16.03073,16.02724 c0,8.9116 -7.1191,16.03071 -16.03073,16.03071 c-8.91158,0 -16.02722,-7.11911 -16.02722,-16.03071 c0,-8.9116 7.11564,-16.02724 16.02722,-16.02724 zm-40.17572,9.06567 c3.90437,0 6.96504,3.05718 6.96504,6.96157 c0,3.9043799999999997 -3.06067,6.96504 -6.96504,6.96504 c-3.9043900000000002,0 -6.96158,-3.06066 -6.96158,-6.96504 c0,-3.9043900000000002 3.05719,-6.96157 6.96158,-6.96157 zm80.174389,0 c3.9044,0 6.96504,3.05718 6.96504,6.96157 c0,3.9043799999999997 -3.06066,6.96504 -6.96504,6.96504 c-3.90437,0 -6.96156,-3.06066 -6.96156,-6.96504 c0,-3.9043900000000002 3.05721,-6.96157 6.96156,-6.96157 z" id="XMLID_107_" inkscape:connector-curvature="0" class=""/></g></svg>