<?xml version="1.0" standalone="no"?>
<!DOCTYPE svg PUBLIC "-//W3C//DTD SVG 20010904//EN"
 "http://www.w3.org/TR/2001/REC-SVG-20010904/DTD/svg10.dtd">
<svg version="1.0" xmlns="http://www.w3.org/2000/svg"
 width="800.000000pt" height="800.000000pt" viewBox="0 0 800.000000 800.000000"
 preserveAspectRatio="xMidYMid meet">
<metadata>
Created by potrace 1.11, written by Peter Selinger 2001-2013
</metadata>
<g transform="translate(0.000000,800.000000) scale(0.100000,-0.100000)"
fill="#000000" stroke="none">
<path d="M3870 7838 c0 -3 -9 -4 -20 -1 -20 5 -20 0 -20 -1202 l0 -1208 43
-41 c54 -51 69 -63 132 -106 28 -18 52 -36 55 -39 3 -3 25 -20 50 -36 142 -95
394 -272 421 -295 79 -69 100 -95 94 -118 -7 -30 -10 -33 -110 -110 -44 -34
-84 -65 -90 -70 -5 -4 -28 -19 -50 -32 -22 -13 -42 -26 -45 -29 -3 -4 -45 -33
-95 -66 -49 -33 -92 -62 -95 -65 -3 -3 -13 -9 -22 -15 -69 -41 -225 -159 -260
-198 l-28 -31 0 -1207 0 -1207 60 -1 c33 -1 66 -2 73 -2 52 -2 336 28 427 46
13 3 42 7 64 11 22 3 44 8 49 11 4 2 20 6 35 8 35 5 181 43 207 55 26 12 108
34 118 32 4 -1 7 3 7 8 0 6 8 10 17 10 39 0 417 176 495 231 14 11 29 19 32
19 8 0 179 113 221 147 17 13 35 27 40 31 80 61 125 98 125 104 0 5 5 8 10 8
6 0 23 12 38 28 16 15 46 43 68 63 51 47 187 191 244 259 56 67 200 262 200
271 0 4 6 14 13 21 25 25 204 343 212 378 1 3 13 31 28 64 15 32 27 61 27 63
0 3 6 19 14 36 16 36 66 174 71 197 3 8 11 40 20 70 17 56 50 187 59 231 21
107 26 134 31 176 3 26 8 57 10 68 13 66 20 207 20 395 0 221 -7 328 -30 472
-4 24 -9 57 -11 73 -11 66 -46 226 -64 289 -10 36 -20 70 -21 74 -1 4 -3 12
-5 17 -32 98 -44 141 -44 152 0 7 -4 13 -10 13 -5 0 -10 10 -10 23 0 13 -4 27
-8 33 -5 5 -26 52 -47 104 -81 202 -255 498 -392 669 -106 132 -288 325 -378
401 -17 14 -46 38 -66 55 -36 30 -62 51 -134 105 -22 16 -44 33 -50 38 -5 4
-35 23 -65 42 -30 19 -57 37 -60 40 -17 20 -247 141 -360 190 -52 22 -104 45
-115 50 -33 16 -289 99 -325 105 -18 3 -37 8 -41 10 -8 6 -140 34 -189 41 -19
3 -48 7 -65 11 -16 3 -41 7 -55 8 -14 2 -47 6 -75 9 -135 16 -375 25 -375 14z"/>
<path d="M3023 7718 c-89 -68 -174 -132 -189 -143 -15 -11 -60 -45 -100 -75
-40 -30 -85 -64 -100 -75 -15 -11 -33 -26 -41 -33 -7 -7 -13 -11 -13 -7 0 3
-10 -4 -22 -16 -13 -11 -39 -32 -58 -45 -28 -19 -296 -220 -335 -251 -5 -4
-82 -62 -170 -128 -88 -65 -164 -123 -170 -127 -5 -5 -73 -56 -150 -113 -77
-57 -151 -113 -165 -124 -14 -10 -83 -62 -155 -115 -207 -154 -211 -158 -231
-246 -5 -19 -10 -1362 -11 -2983 -3 -2722 -2 -2950 13 -2980 9 -18 26 -41 38
-53 25 -26 91 -48 108 -38 29 17 163 120 166 127 2 4 10 7 17 7 7 0 15 4 17 8
2 5 149 118 328 252 179 133 336 251 350 262 27 21 519 390 564 423 60 44 382
285 391 293 6 4 52 39 103 76 89 65 119 101 131 156 3 14 7 1358 8 2988 3
2531 1 2967 -11 2990 -22 43 -72 81 -113 87 -36 5 -46 0 -200 -117z"/>
</g>
</svg>
