<svg version="1" xmlns="http://www.w3.org/2000/svg" width="1066.667" height="1066.667" viewBox="0 0 800.000000 800.000000"><path d="M395.8.5c-.2.2-4.8.6-10.3 1-5.5.3-11.3.8-13 1-1.6.2-5.7.7-9 1-8 .8-28.3 3.6-35.5 4.9-1.4.3-4.1.7-6.1 1-2 .3-4.2.8-5 1-.8.3-3 .7-5 1-3.1.5-12.9 2.8-28.4 6.7-2.2.6-4.2.9-4.5.8-.3-.1-1.4.3-2.6.9-1.1.6-3.2 1.3-4.5 1.6-9.4 1.9-42 12.4-53.2 17.1-2 .8-3.9 1.5-4.2 1.6-1.4 0-24.5 10.8-34.1 15.8-28.7 15.1-49.9 32.8-61.7 51.5-1 1.6-2.5 3.6-3.4 4.4-1.3 1.4-1.3 1.7-.1 2.6 3.5 2.6 11 15.5 16.6 28.6 2.7 6.2 10.6 30 13.7 41 .1.3.7 2.5 1.5 5 .7 2.5 1.5 5.4 1.7 6.4.2 1.1 1.1 4.4 1.9 7.4.9 3 1.7 6 1.8 6.6.2.6.6 2.2.9 3.6 2.4 9.7 7 28.7 7.3 30.4.2 1.2.6 3.2.9 4.6.4 1.4.8 3.6 1.1 5 .3 1.4.7 3.3 1 4.2.3.9.7 2.7.9 4 .3 1.3.9 4.3 1.5 6.8.5 2.5 1.2 5.6 1.4 7 .3 1.4.8 3.6 1.1 5 .3 1.4 1.2 6.1 2 10.5s2.3 12.1 3.3 17.2c1.8 8.4 1.8 9.2.3 10.5-14.1 11.6-19.8 16.7-28 25.2-9.3 9.7-9.5 10-12.6 14.1-1.7 2.2-3.3 4.2-3.7 4.6-1.8 1.2-12.2 17.9-15.3 24.4-3.5 7.4-7.9 19.7-9 25.5-.4 1.9-.8 8.4-1 14.3-.3 10.4.8 18 3.8 26.7 1.7 5 7.9 16.9 10.2 19.6.6.6 2.5 3 4.3 5.2 1.8 2.3 5.4 6.1 8 8.6 4.6 4.4 17.8 14.6 18.8 14.6.3 0 1.8.9 3.3 1.9 8.8 6.3 40.8 19.6 52.1 21.7 1.4.3 3.4.8 4.5 1.1 2.2.7 2.7.9 6.5 1.8 2.5.6 10.2 2.1 15 3 1.4.3 3.6.7 4.9 1 2.1.4 8.4 1.3 22.1 3 10.6 1.4 21.4 1.8 47.5 1.9 16 0 32.6-.3 37.1-.7 13.7-1.1 22-2 31.4-3.2 1.9-.3 5.5-.7 8-1 2.5-.3 6.8-1 9.5-1.5 2.8-.5 6.6-1.2 8.5-1.5 1.9-.3 4.4-.7 5.5-.9 1.1-.2 3.8-.7 6-1.1 2.2-.3 5.6-1 7.5-1.5 1.9-.5 5.1-1.2 7-1.5 1.9-.3 4.3-.8 5.2-1.1.9-.3 2.6-.7 3.8-.9 4.1-.8 26.6-6.7 31.1-8.1 2.5-.9 5.2-1.7 6-1.8.8-.2 2.1-.5 2.9-.8 7.4-2.7 32.8-11 33.8-11.1.6 0 1.2-.4 1.2-.9 0-.4.6-.8 1.4-.8 1.6 0 23.7-9 30.6-12.5 2.8-1.4 5-2.2 5-1.8 0 .5.4.3.8-.2.4-.6 3.2-2.1 6.2-3.5 13.4-6 49.9-27 50.8-29.2.2-.5.8-.8 1.3-.8s5.1-3 10.2-6.7c8.2-6 12-9 23.1-18.3 6.5-5.4 21.7-21.1 27.5-28.5 13-16.4 22.2-33 25.8-47 .2-1.1.9-3.8 1.5-6 1.7-6.8 1.8-26.6.2-33.2-5.4-21.1-16.6-37.2-36.7-52.2-4.3-3.2-11.3-7.5-15.5-9.7-4.2-2.1-7.9-4.2-8.2-4.5-1.6-1.9-35.7-14.3-43-15.6-.8-.1-2.8-.5-4.3-.9-3.7-.9-3.9-1.8 5.3 28.1 1 3.3 6 18.6 11.1 34 5 15.4 9.1 28.4 9.1 29-.2 3.1-3.7 13-5.6 15.5-.6.8-2 3.1-3 5-1.1 1.9-2.2 3.7-2.6 4-.3.3-1.9 2.3-3.5 4.5-4.5 6.1-15.1 17-23.7 24.1-8.1 6.8-26.6 19.5-33.3 22.9-2.2 1.1-4.2 2.2-4.5 2.5-1.5 1.6-37.8 18.6-41.5 19.4-.5.1-2.7 1-4.9 1.9-6.2 2.7-32.5 11.4-43.2 14.2-5.5 1.4-10.6 2.9-11.4 3.2-1.9.8-.8.5-12.5 3.3-11.3 2.8-15.9 2.8-18.7.3-8.4-7.6-4.4-18.2 7.9-20.8 1-.2 7-1.8 13.3-3.5 6.3-1.7 12.4-3.3 13.4-3.5 1.1-.3 6.5-1.9 12-3.6 5.6-1.8 10.6-3.3 11.1-3.5 2.1-.5 16.4-5.7 26.5-9.7 13.5-5.4 39.4-18.2 49-24.3 15.5-9.9 32.8-24.3 40-33.3 1.4-1.8 3-3.7 3.5-4.4 1.8-2.1 4.8-7.1 6.6-10.6 1.7-3.5 1.5-5.4-1.1-11.6-.4-1.1-2.5-7.2-4.5-13.5-2.1-6.3-4-12.2-4.3-13-.3-.8-.6-2-.8-2.5-.1-.6-.9-3-1.7-5.5-2-5.9-8.9-28.1-9.1-29.4-.1-.6-1.1-3.8-2.1-7.1s-1.9-6.5-2.1-7c-.1-.6-1.4-5.3-2.9-10.5-3.2-11.5-8.4-31.5-9.1-35-.3-1.4-.8-3.4-1.1-4.5-.4-1.1-.8-2.5-.9-3-.1-.6-1-4.6-1.9-9-.9-4.4-1.9-9.3-2.1-11-.2-1.6-.7-3.9-1.1-5-.4-1.1-.8-2.9-.9-4-.1-1.1-.5-3.6-.8-5.5-2.4-15.7-2.4-31 0-40.2.9-3.5 1.7-6.8 1.8-7.3.1-.6.5-1.6.9-2.3.5-.6.6-1.2.2-1.2-.3 0-.1-.8.4-1.9 2.3-4.1 3.8-19 3.5-34.4-.2-16.9-3.3-21.9-20.4-33.3-12.9-8.6-32-16.2-47.6-18.8-1.1-.2-4.5-.9-7.6-1.5-3.1-.7-7.5-1.4-9.9-1.6-2.4-.3-6.4-.7-8.9-1-4.9-.6-56.7-1.5-57.2-1zm122 75.2c3.2 3 3.4 3.6 3 8.2-.5 5.2-1.5 6.6-8.8 12.1-2.5 1.9-4.9 3.9-5.5 4.3-2 1.6-19.1 13.3-20.5 14-.8.4-5.8 3.4-11 6.7-11.8 7.3-35.3 19.4-48.5 25-5.5 2.3-11.3 4.7-13 5.5-1.6.7-7.9 2.9-14 5-6 2-11.7 4-12.5 4.3-.8.3-1.9.6-2.5.7-.5.2-3.5 1-6.5 2-6 1.8-23 6.3-27 7.1-1.4.2-3.6.7-5 1.1-1.4.3-3.2.7-4 .8-1.3.1-3.6.5-10.6 1.9-1.2.2-3.7.7-5.5 1-1.9.3-4.3.7-5.4 1-2.2.4-10.7 1.7-14.5 2.1-1.4.1-5.4.6-8.9.9-3.5.4-7.8.9-9.5 1.1-18.8 2.4-75.3 2.4-95.1 0-2.2-.3-6-.7-8.5-1-7.3-.9-12.3-1.5-15-2-1.4-.2-4.5-.7-6.9-1-9.1-1.3-12.7-4-13.7-10.3-1.1-7.2 4-13 11.1-12.7 1.7 0 5 .4 7.5.8s5.9.9 7.5 1.2c1.7.2 4.1.6 5.5.9 13.3 2.6 65.7 4 90.5 2.3 17.6-1.3 28.9-2.3 33.1-3.1 1.2-.2 4.5-.7 7.5-1.1 3-.3 6.1-.8 6.9-1 .8-.3 3.1-.7 5-1 1.9-.2 4.9-.7 6.5-1 1.7-.3 3.9-.8 5-1 5.9-1.1 21.9-4.8 28-6.6 3.9-1.1 7.9-2.2 8.9-2.4 2.5-.6 20.5-6.4 23.1-7.5 1.1-.4 7-2.7 13-5 6.1-2.4 14.8-6.1 19.5-8.3 4.7-2.2 8.7-4.1 9-4.2 1.7-.4 17.6-9 23.5-12.6 1.7-1.1 4.1-2.4 5.5-3.1 1.4-.7 2.7-1.5 3-1.8.3-.3 3.7-2.6 7.5-4.9 3.9-2.4 12-8.1 18.1-12.6 6-4.5 11.7-8.4 12.5-8.7 3.7-1.4 8.4-.2 11.7 2.9zM310.7 595.6c-.1.1-2.9.5-6.2.8-3.3.4-7.3 1-9 1.3-1.6.3-3.9.6-5 .8-4.4.4-10.6 1.9-24.5 5.7-8 2.1-14.9 4-15.5 4.2-.5.1-3.7 1.1-7 2.1s-6.4 1.9-7 2.1c-2.3.5-24.4 8.8-29.3 11-2.9 1.3-5.5 2.4-5.8 2.4-.6 0-18.6 9-23.9 12-14.6 8.2-31.4 23-39.2 34.5-7.3 10.9-10.2 17.9-8.2 20 1.5 1.4 19.1-7.8 24.7-12.8 3.4-3.1 2.7-.8-2 6.3-5.5 8.6-13.3 23.6-15.8 30.7-5.5 15.6-4.3 25.9 3.8 31.1 8.6 5.6 21.4 1 29.4-10.4 1.1-1.7 1.7-2 1.3-.9-.4 1.1-2 5.4-3.6 9.7-9.1 25.1-3.4 42.9 16 50.1 7.7 2.9 18.6 4.3 19.6 2.6.4-.5 1-.7 1.5-.4.9.5 4.3-2.2 12.7-9.8 6.2-5.8 10.1-8.5 17.3-12.2 6.4-3.2 20.2-8.3 24.8-9.1 2.8-.5 23.6-7.9 27.9-9.9 1.7-.8 3.5-1.5 3.9-1.5 1.5 0 37.9-18.2 38.2-19.1.2-.5.9-.9 1.6-.9 1.5 0 25.9-15.1 34.8-21.4 3.5-2.5 7.4-5.4 8.8-6.3 3-2.3 20.2-16.3 21.5-17.8.6-.6 1.9-1.8 3.1-2.8 2-1.7 2.2-1.6 5.6 1.5 10 9.2 12.7 11.5 15 13 1.4.9 3.1 2.3 3.9 3 3.4 3.3 27.5 19.8 28.9 19.8.4 0 1 .4 1.2.8.5 1.3 20.2 12.4 35.3 19.9 18 9 35.6 16.1 52.5 21.2 15 4.6 14.9 4.5 24 8.9 10.5 5.1 10.4 4.9 25.1 18.2 2.4 2.2 5.6 4.4 7 4.9 7.6 2.7 25.1-2.4 32.4-9.3 6.5-6.1 8.5-12.2 8.1-24.3-.3-9.7-.4-10.2-7.1-28.8-.4-1.1.4-.4 1.8 1.5 4.4 6.1 12.4 11.7 17.7 12.4 6.5.8 13.6-2.9 16.7-8.7 2.3-4.5 1.6-16.1-1.4-23.7-.3-.8-.7-2-.8-2.5-.3-1.4-9-19.2-11.2-23-1-1.7-2.1-3.2-2.5-3.3-.5-.2-.8-.9-.8-1.6 0-.6-1.4-2.8-3.1-4.9-1.7-2.1-2.9-4-2.7-4.2.2-.2 2.9 1.3 5.9 3.4 12.5 8.6 20 11.9 22 9.5 2.7-3.2-11.4-25.1-22.9-35.5-6.4-5.8-18.3-14.3-24.2-17.4-1.9-1-3.7-2.1-4-2.4-1.1-1.3-33.5-16.1-35.3-16.1-.7 0-2.4-.6-3.8-1.4-2.4-1.2-12-4.7-14.4-5.2-.5-.1-3-.9-5.5-1.7-7.3-2.4-21.3-6.6-24-7.1-1.4-.3-6.9-1.7-12.3-3-5.4-1.4-11.9-2.8-14.5-3.2-2.6-.3-5-.8-5.3-1-2.9-1.7-38.9-2.2-62.4-.9-17.2.9-19.3 1.1-24 1.8-2.2.4-5.6.9-7.5 1.2-5.1.7-9.3 1.6-9.9 2-.4.2-2.9-.1-5.6-.6-7.7-1.6-8.4-1.7-18-2.9-4.9-.6-14.2-1.4-20.5-1.6-11.6-.5-48-1-48.3-.8z"/></svg>