<?xml version="1.0" standalone="no"?>
<!DOCTYPE svg PUBLIC "-//W3C//DTD SVG 20010904//EN"
 "http://www.w3.org/TR/2001/REC-SVG-20010904/DTD/svg10.dtd">
<svg version="1.0" xmlns="http://www.w3.org/2000/svg"
 width="800.000000pt" height="800.000000pt" viewBox="0 0 800.000000 800.000000"
 preserveAspectRatio="xMidYMid meet">
<metadata>
Created by potrace 1.11, written by Peter Selinger 2001-2013
</metadata>
<g transform="translate(0.000000,800.000000) scale(0.100000,-0.100000)"
fill="#000000" stroke="none">
<path d="M3958 7995 c-2 -2 -48 -6 -103 -10 -55 -3 -113 -8 -130 -10 -16 -2
-57 -7 -90 -10 -80 -8 -283 -36 -355 -49 -14 -3 -41 -7 -61 -10 -20 -3 -42 -8
-50 -10 -8 -3 -30 -7 -50 -10 -31 -5 -129 -28 -284 -67 -22 -6 -42 -9 -45 -8
-3 1 -14 -3 -26 -9 -11 -6 -32 -13 -45 -16 -94 -19 -420 -124 -532 -171 -20
-8 -39 -15 -42 -16 -14 0 -245 -108 -341 -158 -287 -151 -499 -328 -617 -515
-10 -16 -25 -36 -34 -44 -13 -14 -13 -17 -1 -26 35 -26 110 -155 166 -286 27
-62 106 -300 137 -410 1 -3 7 -25 15 -50 7 -25 15 -54 17 -64 2 -11 11 -44 19
-74 9 -30 17 -60 18 -66 2 -6 6 -22 9 -36 24 -97 70 -287 73 -304 2 -12 6 -32
9 -46 4 -14 8 -36 11 -50 3 -14 7 -33 10 -42 3 -9 7 -27 9 -40 3 -13 9 -43 15
-68 5 -25 12 -56 14 -70 3 -14 8 -36 11 -50 3 -14 12 -61 20 -105 8 -44 23
-121 33 -172 18 -84 18 -92 3 -105 -141 -116 -198 -167 -280 -252 -93 -97 -95
-100 -126 -141 -17 -22 -33 -42 -37 -46 -18 -12 -122 -179 -153 -244 -35 -74
-79 -197 -90 -255 -4 -19 -8 -84 -10 -143 -3 -104 8 -180 38 -267 17 -50 79
-169 102 -196 6 -6 25 -30 43 -52 18 -23 54 -61 80 -86 46 -44 178 -146 188
-146 3 0 18 -9 33 -19 88 -63 408 -196 521 -217 14 -3 34 -8 45 -11 22 -7 27
-9 65 -18 25 -6 102 -21 150 -30 14 -3 36 -7 49 -10 21 -4 84 -13 221 -30 106
-14 214 -18 475 -19 160 0 326 3 371 7 137 11 220 20 314 32 19 3 55 7 80 10
25 3 68 10 95 15 28 5 66 12 85 15 19 3 44 7 55 9 11 2 38 7 60 11 22 3 56 10
75 15 19 5 51 12 70 15 19 3 43 8 52 11 9 3 26 7 38 9 41 8 266 67 311 81 25
9 52 17 60 18 8 2 21 5 29 8 74 27 328 110 338 111 6 0 12 4 12 9 0 4 6 8 14
8 16 0 237 90 306 125 28 14 50 22 50 18 0 -5 4 -3 8 2 4 6 32 21 62 35 134
60 499 270 508 292 2 5 8 8 13 8 5 0 51 30 102 67 82 60 120 90 231 183 65 54
217 211 275 285 130 164 222 330 258 470 2 11 9 38 15 60 17 68 18 266 2 332
-54 211 -166 372 -367 522 -43 32 -113 75 -155 97 -42 21 -79 42 -82 45 -16
19 -357 143 -430 156 -8 1 -28 5 -43 9 -37 9 -39 18 53 -281 10 -33 60 -186
111 -340 50 -154 91 -284 91 -290 -2 -31 -37 -130 -56 -155 -6 -8 -20 -31 -30
-50 -11 -19 -22 -37 -26 -40 -3 -3 -19 -23 -35 -45 -45 -61 -151 -170 -237
-241 -81 -68 -266 -195 -333 -229 -22 -11 -42 -22 -45 -25 -15 -16 -378 -186
-415 -194 -5 -1 -27 -10 -49 -19 -62 -27 -325 -114 -432 -142 -55 -14 -106
-29 -114 -32 -19 -8 -8 -5 -125 -33 -113 -28 -159 -28 -187 -3 -84 76 -44 182
79 208 10 2 70 18 133 35 63 17 124 33 134 35 11 3 65 19 120 36 56 18 106 33
111 35 21 5 164 57 265 97 135 54 394 182 490 243 155 99 328 243 400 333 14
18 30 37 35 44 18 21 48 71 66 106 17 35 15 54 -11 116 -4 11 -25 72 -45 135
-21 63 -40 122 -43 130 -3 8 -6 20 -8 25 -1 6 -9 30 -17 55 -20 59 -89 281
-91 294 -1 6 -11 38 -21 71 -10 33 -19 65 -21 70 -1 6 -14 53 -29 105 -32 115
-84 315 -91 350 -3 14 -8 34 -11 45 -4 11 -8 25 -9 30 -1 6 -10 46 -19 90 -9
44 -19 93 -21 110 -2 16 -7 39 -11 50 -4 11 -8 29 -9 40 -1 11 -5 36 -8 55
-24 157 -24 310 0 402 9 35 17 68 18 73 1 6 5 16 9 23 5 6 6 12 2 12 -3 0 -1
8 4 19 23 41 38 190 35 344 -2 169 -33 219 -204 333 -129 86 -320 162 -476
188 -11 2 -45 9 -76 15 -31 7 -75 14 -99 16 -24 3 -64 7 -89 10 -49 6 -567 15
-572 10z m1220 -752 c32 -30 34 -36 30 -82 -5 -52 -15 -66 -88 -121 -25 -19
-49 -39 -55 -43 -20 -16 -191 -133 -205 -140 -8 -4 -58 -34 -110 -67 -118 -73
-353 -194 -485 -250 -55 -23 -113 -47 -130 -55 -16 -7 -79 -29 -140 -50 -60
-20 -117 -40 -125 -43 -8 -3 -19 -6 -25 -7 -5 -2 -35 -10 -65 -20 -60 -18
-230 -63 -270 -71 -14 -2 -36 -7 -50 -11 -14 -3 -32 -7 -40 -8 -13 -1 -36 -5
-106 -19 -12 -2 -37 -7 -55 -10 -19 -3 -43 -7 -54 -10 -22 -4 -107 -17 -145
-21 -14 -1 -54 -6 -89 -9 -35 -4 -78 -9 -95 -11 -188 -24 -753 -24 -951 0 -22
3 -60 7 -85 10 -73 9 -123 15 -150 20 -14 2 -45 7 -69 10 -91 13 -127 40 -137
103 -11 72 40 130 111 127 17 0 50 -4 75 -8 25 -4 59 -9 75 -12 17 -2 41 -6
55 -9 133 -26 657 -40 905 -23 176 13 289 23 331 31 12 2 45 7 75 11 30 3 61
8 69 10 8 3 31 7 50 10 19 2 49 7 65 10 17 3 39 8 50 10 59 11 219 48 280 66
39 11 79 22 89 24 25 6 205 64 231 75 11 4 70 27 130 50 61 24 148 61 195 83
47 22 87 41 90 42 17 4 176 90 235 126 17 11 41 24 55 31 14 7 27 15 30 18 3
3 37 26 75 49 39 24 120 81 181 126 60 45 117 84 125 87 37 14 84 2 117 -29z"/>
<path d="M3107 2044 c-1 -1 -29 -5 -62 -8 -33 -4 -73 -10 -90 -13 -16 -3 -39
-6 -50 -8 -44 -4 -106 -19 -245 -57 -80 -21 -149 -40 -155 -42 -5 -1 -37 -11
-70 -21 -33 -10 -64 -19 -70 -21 -23 -5 -244 -88 -293 -110 -29 -13 -55 -24
-58 -24 -6 0 -186 -90 -239 -120 -146 -82 -314 -230 -392 -345 -73 -109 -102
-179 -82 -200 15 -14 191 78 247 128 34 31 27 8 -20 -63 -55 -86 -133 -236
-158 -307 -55 -156 -43 -259 38 -311 86 -56 214 -10 294 104 11 17 17 20 13 9
-4 -11 -20 -54 -36 -97 -91 -251 -34 -429 160 -501 77 -29 186 -43 196 -26 4
5 10 7 15 4 9 -5 43 22 127 98 62 58 101 85 173 122 64 32 202 83 248 91 28 5
236 79 279 99 17 8 35 15 39 15 15 0 379 182 382 191 2 5 9 9 16 9 15 0 259
151 348 214 35 25 74 54 88 63 30 23 202 163 215 178 6 6 19 18 31 28 20 17
22 16 56 -15 100 -92 127 -115 150 -130 14 -9 31 -23 39 -30 34 -33 275 -198
289 -198 4 0 10 -4 12 -8 5 -13 202 -124 353 -199 180 -90 356 -161 525 -212
150 -46 149 -45 240 -89 105 -51 104 -49 251 -182 24 -22 56 -44 70 -49 76
-27 251 24 324 93 65 61 85 122 81 243 -3 97 -4 102 -71 288 -4 11 4 4 18 -15
44 -61 124 -117 177 -124 65 -8 136 29 167 87 23 45 16 161 -14 237 -3 8 -7
20 -8 25 -3 14 -90 192 -112 230 -10 17 -21 32 -25 33 -5 2 -8 9 -8 16 0 6
-14 28 -31 49 -17 21 -29 40 -27 42 2 2 29 -13 59 -34 125 -86 200 -119 220
-95 27 32 -114 251 -229 355 -64 58 -183 143 -242 174 -19 10 -37 21 -40 24
-11 13 -335 161 -353 161 -7 0 -24 6 -38 14 -24 12 -120 47 -144 52 -5 1 -30
9 -55 17 -73 24 -213 66 -240 71 -14 3 -69 17 -123 30 -54 14 -119 28 -145 32
-26 3 -50 8 -53 10 -29 17 -389 22 -624 9 -172 -9 -193 -11 -240 -18 -22 -4
-56 -9 -75 -12 -51 -7 -93 -16 -99 -20 -4 -2 -29 1 -56 6 -77 16 -84 17 -180
29 -49 6 -142 14 -205 16 -116 5 -480 10 -483 8z"/>
</g>
</svg>
