<?xml version="1.0" standalone="no"?>
<!DOCTYPE svg PUBLIC "-//W3C//DTD SVG 20010904//EN"
 "http://www.w3.org/TR/2001/REC-SVG-20010904/DTD/svg10.dtd">
<svg version="1.0" xmlns="http://www.w3.org/2000/svg"
 width="700.000000pt" height="700.000000pt" viewBox="0 0 700.000000 700.000000"
 preserveAspectRatio="xMidYMid meet">
<metadata>
Created by potrace 1.14, written by Peter Selinger 2001-2017
</metadata>
<g transform="translate(0.000000,700.000000) scale(0.100000,-0.100000)"
fill="#000000" stroke="none">
<path d="M572 6989 c-29 -5 -86 -22 -126 -37 -228 -89 -400 -301 -436 -538 -7
-47 -10 -973 -8 -2954 3 -2735 4 -2888 21 -2944 73 -243 259 -427 498 -493 60
-17 224 -18 2979 -18 2755 0 2919 1 2979 18 242 67 431 256 498 498 17 60 18
224 18 2979 0 2755 -1 2919 -18 2979 -66 239 -250 425 -493 498 -56 17 -208
18 -2959 19 -1646 1 -2923 -2 -2953 -7z m3059 -1080 c377 -29 711 -148 1011
-359 107 -75 293 -251 377 -355 490 -609 571 -1461 203 -2147 -193 -362 -483
-642 -857 -828 -179 -89 -323 -139 -500 -175 -125 -25 -402 -52 -429 -42 -14
6 -16 84 -16 775 0 767 0 769 21 796 12 15 118 92 238 171 119 79 232 160 251
180 l35 37 -46 41 c-25 23 -132 100 -238 171 -106 70 -208 143 -227 161 l-34
32 0 770 c0 423 3 773 7 776 9 9 47 9 204 -4z m-421 -1956 l0 -1957 -48 -45
c-31 -31 -249 -165 -646 -401 -330 -195 -607 -356 -616 -358 -21 -4 -127 101
-176 175 -47 71 -90 180 -103 264 -7 42 -11 597 -11 1652 0 1327 2 1593 14
1621 10 24 37 48 102 90 178 113 1469 914 1477 915 4 1 7 -880 7 -1956z"/>
</g>
</svg>
