<svg width="35" height="43" viewBox="0 0 35 43" fill="none" xmlns="http://www.w3.org/2000/svg">
<path fill-rule="evenodd" clip-rule="evenodd" d="M17.2136 0.00201263C17.0553 -0.00251579 16.2575 0.00201263 16.2575 0.00201263V14.4934C16.2575 14.5006 16.2584 13.6021 16.26 13.6094C16.3195 13.8849 17.4531 14.6171 18.601 15.3586C19.8115 16.1404 21.0379 16.9325 21.0379 17.2105C21.0379 17.5128 19.841 18.2688 18.645 19.0243C17.4508 19.7786 16.2575 20.5324 16.2575 20.8333V34.419C16.2575 34.419 16.9653 34.428 17.2136 34.419C26.8989 34.0467 34.4229 26.4768 34.4229 17.2105C34.4229 7.85723 27.0258 0.24112 17.2136 0.00201263ZM13.4071 0.00165134L0.897702 8.15304C0.860782 8.17951 0.825323 8.20482 0.79127 8.22913C0.0610899 8.75037 -0.0225495 8.81008 0.00417168 9.96446V41.6643C0.00417168 42.1642 0.404205 42.57 0.897702 42.57L12.5136 35.3243C12.6242 35.2305 12.7219 35.1516 12.8079 35.082C13.3448 34.6482 13.4312 34.5784 13.4071 33.5129V0.00165134Z" fill="white"/>
</svg>
